<svg width="24" height="32" viewBox="0 0 24 32" fill="none" xmlns="http://www.w3.org/2000/svg">
<g clip-path="url(#clip0_14_497)">
<path d="M17.25 10.75H3.75C2.92157 10.75 2.25 11.4216 2.25 12.25V22.75C2.25 23.5784 2.92157 24.25 3.75 24.25H17.25C18.0784 24.25 18.75 23.5784 18.75 22.75V12.25C18.75 11.4216 18.0784 10.75 17.25 10.75Z" fill="#637587"/>
<path fill-rule="evenodd" clip-rule="evenodd" d="M20.25 7.75H6C5.58579 7.75 5.25 8.08579 5.25 8.5C5.25 8.91421 5.58579 9.25 6 9.25H20.25V20.5C20.25 20.9142 20.5858 21.25 21 21.25C21.4142 21.25 21.75 20.9142 21.75 20.5V9.25C21.75 8.42157 21.0784 7.75 20.25 7.75Z" fill="#637587"/>
</g>
<defs>
<clipPath id="clip0_14_497">
<rect width="24" height="24" fill="white" transform="translate(0 4)"/>
</clipPath>
</defs>
</svg>
