<svg width="48" height="44" viewBox="0 0 48 44" fill="none" xmlns="http://www.w3.org/2000/svg">
<path d="M24 3.6665C13.158 3.6665 4 12.0613 4 21.9998C4 31.9383 13.158 40.3332 24 40.3332C34.842 40.3332 44 31.9383 44 21.9998C44 12.0613 34.842 3.6665 24 3.6665ZM24 12.8332C27.454 12.8332 30 15.1652 30 18.3332C30 21.5012 27.454 23.8332 24 23.8332C20.548 23.8332 18 21.5012 18 18.3332C18 15.1652 20.548 12.8332 24 12.8332ZM13.788 30.7485C15.582 28.3285 18.574 26.7152 22 26.7152H26C29.428 26.7152 32.418 28.3285 34.212 30.7485C31.656 33.2565 28.03 34.8332 24 34.8332C19.97 34.8332 16.344 33.2565 13.788 30.7485Z" fill="black"/>
</svg>
