<svg width="29" height="24" viewBox="0 0 29 24" fill="none" xmlns="http://www.w3.org/2000/svg">
<g clip-path="url(#clip0_69_514)">
<path d="M19.75 6.75H6.25C5.42157 6.75 4.75 7.42157 4.75 8.25V18.75C4.75 19.5784 5.42157 20.25 6.25 20.25H19.75C20.5784 20.25 21.25 19.5784 21.25 18.75V8.25C21.25 7.42157 20.5784 6.75 19.75 6.75Z" fill="black"/>
<path fill-rule="evenodd" clip-rule="evenodd" d="M22.75 3.75H8.5C8.08579 3.75 7.75 4.08579 7.75 4.5C7.75 4.91421 8.08579 5.25 8.5 5.25H22.75V16.5C22.75 16.9142 23.0858 17.25 23.5 17.25C23.9142 17.25 24.25 16.9142 24.25 16.5V5.25C24.25 4.42157 23.5784 3.75 22.75 3.75Z" fill="black"/>
</g>
<defs>
<clipPath id="clip0_69_514">
<rect width="24" height="24" fill="white" transform="translate(2.5)"/>
</clipPath>
</defs>
</svg>
