<svg width="24" height="32" viewBox="0 0 24 32" fill="none" xmlns="http://www.w3.org/2000/svg">
<g clip-path="url(#clip0_5_736)">
<path fill-rule="evenodd" clip-rule="evenodd" d="M20.7938 20.4944C20.2734 19.5981 19.5 17.0622 19.5 13.75C19.5 9.60786 16.1421 6.25 12 6.25C7.85786 6.25 4.5 9.60786 4.5 13.75C4.5 17.0631 3.72563 19.5981 3.20531 20.4944C2.93487 20.9581 2.9329 21.5311 3.20016 21.9967C3.46741 22.4623 3.96313 22.7496 4.5 22.75H8.32594C8.68267 24.4956 10.2184 25.7492 12 25.7492C13.7816 25.7492 15.3173 24.4956 15.6741 22.75H19.5C20.0367 22.7493 20.5321 22.4619 20.7991 21.9963C21.0662 21.5308 21.0641 20.958 20.7938 20.4944ZM12 24.25C11.0467 24.2497 10.1971 23.6487 9.87938 22.75H14.1206C13.8029 23.6487 12.9533 24.2497 12 24.25ZM4.5 21.25C5.22188 20.0088 6 17.1325 6 13.75C6 10.4363 8.68629 7.75 12 7.75C15.3137 7.75 18 10.4363 18 13.75C18 17.1297 18.7763 20.0059 19.5 21.25H4.5Z" fill="#637587"/>
</g>
<defs>
<clipPath id="clip0_5_736">
<rect width="24" height="24" fill="white" transform="translate(0 4)"/>
</clipPath>
</defs>
</svg>
