<svg width="29" height="32" viewBox="0 0 29 32" fill="none" xmlns="http://www.w3.org/2000/svg">
<g clip-path="url(#clip0_69_503)">
<path fill-rule="evenodd" clip-rule="evenodd" d="M12.25 7.75H7.75C6.92157 7.75 6.25 8.42157 6.25 9.25V13.75C6.25 14.5784 6.92157 15.25 7.75 15.25H12.25C13.0784 15.25 13.75 14.5784 13.75 13.75V9.25C13.75 8.42157 13.0784 7.75 12.25 7.75ZM12.25 13.75H7.75V9.25H12.25V13.75ZM12.25 16.75H7.75C6.92157 16.75 6.25 17.4216 6.25 18.25V22.75C6.25 23.5784 6.92157 24.25 7.75 24.25H12.25C13.0784 24.25 13.75 23.5784 13.75 22.75V18.25C13.75 17.4216 13.0784 16.75 12.25 16.75ZM12.25 22.75H7.75V18.25H12.25V22.75ZM21.25 7.75H16.75C15.9216 7.75 15.25 8.42157 15.25 9.25V13.75C15.25 14.5784 15.9216 15.25 16.75 15.25H21.25C22.0784 15.25 22.75 14.5784 22.75 13.75V9.25C22.75 8.42157 22.0784 7.75 21.25 7.75ZM21.25 13.75H16.75V9.25H21.25V13.75ZM15.25 20.5V17.5C15.25 17.0858 15.5858 16.75 16 16.75C16.4142 16.75 16.75 17.0858 16.75 17.5V20.5C16.75 20.9142 16.4142 21.25 16 21.25C15.5858 21.25 15.25 20.9142 15.25 20.5ZM22.75 19C22.75 19.4142 22.4142 19.75 22 19.75H19.75V23.5C19.75 23.9142 19.4142 24.25 19 24.25H16C15.5858 24.25 15.25 23.9142 15.25 23.5C15.25 23.0858 15.5858 22.75 16 22.75H18.25V17.5C18.25 17.0858 18.5858 16.75 19 16.75C19.4142 16.75 19.75 17.0858 19.75 17.5V18.25H22C22.4142 18.25 22.75 18.5858 22.75 19ZM22.75 22V23.5C22.75 23.9142 22.4142 24.25 22 24.25C21.5858 24.25 21.25 23.9142 21.25 23.5V22C21.25 21.5858 21.5858 21.25 22 21.25C22.4142 21.25 22.75 21.5858 22.75 22Z" fill="#637587"/>
</g>
<defs>
<clipPath id="clip0_69_503">
<rect width="24" height="24" fill="white" transform="translate(2.5 4)"/>
</clipPath>
</defs>
</svg>
