<svg width="29" height="32" viewBox="0 0 29 32" fill="none" xmlns="http://www.w3.org/2000/svg">
<g clip-path="url(#clip0_14_821)">
<path fill-rule="evenodd" clip-rule="evenodd" d="M13.4922 18.805C15.5561 17.431 16.4769 14.8677 15.7592 12.4944C15.0414 10.1211 12.8544 8.49772 10.375 8.49772C7.89558 8.49772 5.70857 10.1211 4.99084 12.4944C4.2731 14.8677 5.19393 17.431 7.25781 18.805C5.43952 19.4752 3.88666 20.7153 2.83094 22.3403C2.67993 22.5647 2.66148 22.8531 2.78266 23.095C2.90384 23.3368 3.14586 23.4947 3.41603 23.5081C3.68621 23.5215 3.94266 23.3884 4.08719 23.1597C5.47076 21.0317 7.83677 19.7479 10.375 19.7479C12.9132 19.7479 15.2792 21.0317 16.6628 23.1597C16.8917 23.4999 17.3514 23.5932 17.6948 23.3692C18.0382 23.1452 18.1381 22.6869 17.9191 22.3403C16.8633 20.7153 15.3105 19.4752 13.4922 18.805ZM6.25 14.125C6.25 11.8468 8.09683 10 10.375 10C12.6532 10 14.5 11.8468 14.5 14.125C14.5 16.4032 12.6532 18.25 10.375 18.25C8.0979 18.2474 6.25258 16.4021 6.25 14.125ZM25.9506 23.3781C25.6037 23.6043 25.1391 23.5066 24.9128 23.1597C23.5308 21.0303 21.1636 19.7466 18.625 19.75C18.2108 19.75 17.875 19.4142 17.875 19C17.875 18.5858 18.2108 18.25 18.625 18.25C20.2863 18.2484 21.7846 17.2504 22.4261 15.718C23.0677 14.1855 22.7273 12.4178 21.5626 11.2331C20.398 10.0484 18.6363 9.67805 17.0931 10.2934C16.8427 10.4017 16.5531 10.3654 16.3372 10.1986C16.1212 10.0319 16.0128 9.76096 16.0542 9.49125C16.0956 9.22154 16.2802 8.99558 16.5363 8.90125C19.2109 7.83457 22.2592 8.96001 23.599 11.5088C24.9388 14.0576 24.1374 17.2067 21.7422 18.805C23.5605 19.4752 25.1133 20.7153 26.1691 22.3403C26.3953 22.6872 26.2975 23.1518 25.9506 23.3781Z" fill="#121417"/>
</g>
<defs>
<clipPath id="clip0_14_821">
<rect width="24" height="24" fill="white" transform="translate(2.5 4)"/>
</clipPath>
</defs>
</svg>
