<svg width="30" height="23" viewBox="0 0 30 23" fill="none" xmlns="http://www.w3.org/2000/svg">
<path d="M25.4129 1.9042C23.4418 1.00181 21.361 0.361629 19.2236 3.60046e-06C18.9311 0.522858 18.6665 1.06081 18.4308 1.6116C16.1541 1.26852 13.8388 1.26852 11.562 1.61161C11.3262 1.06087 11.0615 0.522923 10.7692 0C8.63042 0.36468 6.54825 1.00638 4.57524 1.90891C0.658305 7.70409 -0.403514 13.3553 0.127396 18.9263C2.42125 20.6211 4.98873 21.9101 7.71822 22.7371C8.33283 21.9105 8.87667 21.0335 9.34399 20.1156C8.45639 19.7841 7.59969 19.3751 6.78382 18.8933C6.99855 18.7376 7.20855 18.5771 7.41148 18.4214C12.218 20.6818 17.7819 20.6818 22.5884 18.4214C22.7937 18.5889 23.0037 18.7494 23.2161 18.8933C22.3986 19.3758 21.5404 19.7856 20.6512 20.1179C21.1179 21.0355 21.6618 21.9117 22.277 22.7371C25.0088 21.9134 27.5782 20.6251 29.8725 18.9287C30.4954 12.4681 28.8083 6.86879 25.4129 1.9042ZM10.0165 15.5002C8.53701 15.5002 7.31473 14.1576 7.31473 12.5059C7.31473 10.8542 8.49453 9.49975 10.0118 9.49975C11.529 9.49975 12.7418 10.8542 12.7159 12.5059C12.6899 14.1576 11.5243 15.5002 10.0165 15.5002ZM19.9834 15.5002C18.5016 15.5002 17.284 14.1576 17.284 12.5059C17.284 10.8542 18.4638 9.49975 19.9834 9.49975C21.503 9.49975 22.7064 10.8542 22.6804 12.5059C22.6545 14.1576 21.4912 15.5002 19.9834 15.5002Z" fill="white"/>
</svg>
