<svg width="29" height="24" viewBox="0 0 29 24" fill="none" xmlns="http://www.w3.org/2000/svg">
<g clip-path="url(#clip0_14_894)">
<path fill-rule="evenodd" clip-rule="evenodd" d="M23.2938 16.4944C22.7734 15.5981 22 13.0622 22 9.75C22 5.60786 18.6421 2.25 14.5 2.25C10.3579 2.25 7 5.60786 7 9.75C7 13.0631 6.22563 15.5981 5.70531 16.4944C5.43487 16.9581 5.4329 17.5311 5.70016 17.9967C5.96741 18.4623 6.46313 18.7496 7 18.75H10.8259C11.1827 20.4956 12.7184 21.7492 14.5 21.7492C16.2816 21.7492 17.8173 20.4956 18.1741 18.75H22C22.5367 18.7493 23.0321 18.4619 23.2991 17.9963C23.5662 17.5308 23.5641 16.958 23.2938 16.4944ZM14.5 20.25C13.5467 20.2497 12.6971 19.6487 12.3794 18.75H16.6206C16.3029 19.6487 15.4533 20.2497 14.5 20.25ZM7 17.25C7.72188 16.0088 8.5 13.1325 8.5 9.75C8.5 6.43629 11.1863 3.75 14.5 3.75C17.8137 3.75 20.5 6.43629 20.5 9.75C20.5 13.1297 21.2763 16.0059 22 17.25H7Z" fill="#121417"/>
</g>
<defs>
<clipPath id="clip0_14_894">
<rect width="24" height="24" fill="white" transform="translate(2.5)"/>
</clipPath>
</defs>
</svg>
